<svg xmlns="http://www.w3.org/2000/svg" xmlns:xlink="http://www.w3.org/1999/xlink" width="500" zoomAndPan="magnify" viewBox="0 0 375 374.999991" height="500" preserveAspectRatio="xMidYMid meet" version="1.0"><defs><g/><clipPath id="af2e62cb55"><path d="M 31.652344 142.082031 L 62.402344 142.082031 L 62.402344 184 L 31.652344 184 Z M 31.652344 142.082031 " clip-rule="nonzero"/></clipPath><clipPath id="ef66fbdb66"><path d="M 31.652344 172 L 62.402344 172 L 62.402344 214 L 31.652344 214 Z M 31.652344 172 " clip-rule="nonzero"/></clipPath><clipPath id="9ffed58c54"><path d="M 31.652344 162 L 62.402344 162 L 62.402344 194 L 31.652344 194 Z M 31.652344 162 " clip-rule="nonzero"/></clipPath></defs><rect stroke="none" stroke-opacity="0" x="-37.5" width="450" fill="#ffffff" y="-37.499999" height="449.999989" fill-opacity="0"/><rect x="-37.5" width="450" fill="#ffffff" y="-37.499999" height="449.999989" fill-opacity="0"/><g fill="#253439" fill-opacity="1"><g transform="translate(156.380612, 209.656553)"><g><path d="M 0.40625 -7.09375 L 2.171875 -7.09375 C 2.722656 -7.09375 3.132812 -6.941406 3.40625 -6.640625 C 3.6875 -6.347656 3.828125 -5.910156 3.828125 -5.328125 L 3.828125 -1.75 C 3.828125 -1.175781 3.6875 -0.738281 3.40625 -0.4375 C 3.132812 -0.144531 2.722656 0 2.171875 0 L 0.40625 0 Z M 1.515625 -6.078125 L 1.515625 -1.015625 L 2.140625 -1.015625 C 2.316406 -1.015625 2.457031 -1.0625 2.5625 -1.15625 C 2.664062 -1.257812 2.71875 -1.441406 2.71875 -1.703125 L 2.71875 -5.390625 C 2.71875 -5.640625 2.664062 -5.816406 2.5625 -5.921875 C 2.457031 -6.023438 2.316406 -6.078125 2.140625 -6.078125 Z M 1.515625 -6.078125 "/></g></g></g><g fill="#253439" fill-opacity="1"><g transform="translate(164.056829, 209.656553)"><g><path d="M 1.515625 -4.09375 L 3.046875 -4.09375 L 3.046875 -3.09375 L 1.515625 -3.09375 L 1.515625 -1.015625 L 3.4375 -1.015625 L 3.4375 0 L 0.40625 0 L 0.40625 -7.09375 L 3.4375 -7.09375 L 3.4375 -6.078125 L 1.515625 -6.078125 Z M 1.515625 -4.09375 "/></g></g></g><g fill="#253439" fill-opacity="1"><g transform="translate(171.328038, 209.656553)"><g><path d="M 2.078125 -1.3125 L 2.9375 -7.09375 L 3.953125 -7.09375 L 2.859375 0 L 1.203125 0 L 0.109375 -7.09375 L 1.234375 -7.09375 Z M 2.078125 -1.3125 "/></g></g></g><g fill="#253439" fill-opacity="1"><g transform="translate(178.943499, 209.656553)"><g><path d="M 1.515625 -4.09375 L 3.046875 -4.09375 L 3.046875 -3.09375 L 1.515625 -3.09375 L 1.515625 -1.015625 L 3.4375 -1.015625 L 3.4375 0 L 0.40625 0 L 0.40625 -7.09375 L 3.4375 -7.09375 L 3.4375 -6.078125 L 1.515625 -6.078125 Z M 1.515625 -4.09375 "/></g></g></g><g fill="#253439" fill-opacity="1"><g transform="translate(186.214708, 209.656553)"><g><path d="M 0.40625 -7.09375 L 1.515625 -7.09375 L 1.515625 -1.015625 L 3.34375 -1.015625 L 3.34375 0 L 0.40625 0 Z M 0.40625 -7.09375 "/></g></g></g><g fill="#253439" fill-opacity="1"><g transform="translate(193.212541, 209.656553)"><g><path d="M 1.421875 -1.625 C 1.421875 -1.375 1.472656 -1.195312 1.578125 -1.09375 C 1.679688 -0.988281 1.820312 -0.9375 2 -0.9375 C 2.175781 -0.9375 2.316406 -0.988281 2.421875 -1.09375 C 2.523438 -1.195312 2.578125 -1.375 2.578125 -1.625 L 2.578125 -5.453125 C 2.578125 -5.710938 2.523438 -5.894531 2.421875 -6 C 2.316406 -6.101562 2.175781 -6.15625 2 -6.15625 C 1.820312 -6.15625 1.679688 -6.101562 1.578125 -6 C 1.472656 -5.894531 1.421875 -5.710938 1.421875 -5.453125 Z M 0.3125 -5.390625 C 0.3125 -5.960938 0.457031 -6.398438 0.75 -6.703125 C 1.039062 -7.015625 1.457031 -7.171875 2 -7.171875 C 2.550781 -7.171875 2.972656 -7.015625 3.265625 -6.703125 C 3.554688 -6.398438 3.703125 -5.960938 3.703125 -5.390625 L 3.703125 -1.703125 C 3.703125 -1.128906 3.554688 -0.6875 3.265625 -0.375 C 2.972656 -0.0703125 2.550781 0.078125 2 0.078125 C 1.457031 0.078125 1.039062 -0.0703125 0.75 -0.375 C 0.457031 -0.6875 0.3125 -1.128906 0.3125 -1.703125 Z M 0.3125 -5.390625 "/></g></g></g><g fill="#253439" fill-opacity="1"><g transform="translate(200.767255, 209.656553)"><g><path d="M 2.046875 -7.09375 C 2.609375 -7.09375 3.023438 -6.941406 3.296875 -6.640625 C 3.566406 -6.347656 3.703125 -5.910156 3.703125 -5.328125 L 3.703125 -4.421875 C 3.703125 -3.835938 3.566406 -3.394531 3.296875 -3.09375 C 3.023438 -2.800781 2.609375 -2.65625 2.046875 -2.65625 L 1.515625 -2.65625 L 1.515625 0 L 0.40625 0 L 0.40625 -7.09375 Z M 1.515625 -6.078125 L 1.515625 -3.671875 L 2.046875 -3.671875 C 2.222656 -3.671875 2.359375 -3.71875 2.453125 -3.8125 C 2.546875 -3.90625 2.59375 -4.082031 2.59375 -4.34375 L 2.59375 -5.40625 C 2.59375 -5.664062 2.546875 -5.84375 2.453125 -5.9375 C 2.359375 -6.03125 2.222656 -6.078125 2.046875 -6.078125 Z M 1.515625 -6.078125 "/></g></g></g><g fill="#253439" fill-opacity="1"><g transform="translate(208.129596, 209.656553)"><g><path d="M 1.515625 -4.09375 L 3.046875 -4.09375 L 3.046875 -3.09375 L 1.515625 -3.09375 L 1.515625 -1.015625 L 3.4375 -1.015625 L 3.4375 0 L 0.40625 0 L 0.40625 -7.09375 L 3.4375 -7.09375 L 3.4375 -6.078125 L 1.515625 -6.078125 Z M 1.515625 -4.09375 "/></g></g></g><g fill="#253439" fill-opacity="1"><g transform="translate(215.400805, 209.656553)"><g><path d="M 2.734375 0 C 2.722656 -0.0507812 2.707031 -0.09375 2.6875 -0.125 C 2.675781 -0.164062 2.664062 -0.21875 2.65625 -0.28125 C 2.644531 -0.34375 2.632812 -0.421875 2.625 -0.515625 C 2.625 -0.609375 2.625 -0.726562 2.625 -0.875 L 2.625 -1.984375 C 2.625 -2.316406 2.566406 -2.550781 2.453125 -2.6875 C 2.335938 -2.820312 2.15625 -2.890625 1.90625 -2.890625 L 1.515625 -2.890625 L 1.515625 0 L 0.40625 0 L 0.40625 -7.09375 L 2.078125 -7.09375 C 2.660156 -7.09375 3.082031 -6.957031 3.34375 -6.6875 C 3.601562 -6.414062 3.734375 -6.003906 3.734375 -5.453125 L 3.734375 -4.90625 C 3.734375 -4.175781 3.488281 -3.695312 3 -3.46875 C 3.289062 -3.351562 3.488281 -3.164062 3.59375 -2.90625 C 3.695312 -2.644531 3.75 -2.328125 3.75 -1.953125 L 3.75 -0.859375 C 3.75 -0.679688 3.753906 -0.523438 3.765625 -0.390625 C 3.773438 -0.265625 3.8125 -0.132812 3.875 0 Z M 1.515625 -6.078125 L 1.515625 -3.890625 L 1.953125 -3.890625 C 2.160156 -3.890625 2.320312 -3.941406 2.4375 -4.046875 C 2.5625 -4.160156 2.625 -4.359375 2.625 -4.640625 L 2.625 -5.34375 C 2.625 -5.601562 2.578125 -5.789062 2.484375 -5.90625 C 2.390625 -6.019531 2.25 -6.078125 2.0625 -6.078125 Z M 1.515625 -6.078125 "/></g></g></g><g fill="#253439" fill-opacity="1"><g transform="translate(223.016264, 209.656553)"><g><path d="M 0.265625 -5.390625 C 0.265625 -5.960938 0.398438 -6.398438 0.671875 -6.703125 C 0.941406 -7.015625 1.351562 -7.171875 1.90625 -7.171875 C 2.445312 -7.171875 2.851562 -7.015625 3.125 -6.703125 C 3.40625 -6.398438 3.546875 -5.960938 3.546875 -5.390625 L 3.546875 -5.109375 L 2.484375 -5.109375 L 2.484375 -5.453125 C 2.484375 -5.710938 2.4375 -5.894531 2.34375 -6 C 2.25 -6.101562 2.113281 -6.15625 1.9375 -6.15625 C 1.757812 -6.15625 1.617188 -6.101562 1.515625 -6 C 1.421875 -5.894531 1.375 -5.710938 1.375 -5.453125 C 1.375 -5.210938 1.425781 -5 1.53125 -4.8125 C 1.644531 -4.625 1.78125 -4.445312 1.9375 -4.28125 C 2.101562 -4.125 2.28125 -3.960938 2.46875 -3.796875 C 2.65625 -3.628906 2.828125 -3.445312 2.984375 -3.25 C 3.148438 -3.050781 3.285156 -2.828125 3.390625 -2.578125 C 3.492188 -2.328125 3.546875 -2.035156 3.546875 -1.703125 C 3.546875 -1.128906 3.40625 -0.6875 3.125 -0.375 C 2.851562 -0.0703125 2.441406 0.078125 1.890625 0.078125 C 1.347656 0.078125 0.9375 -0.0703125 0.65625 -0.375 C 0.375 -0.6875 0.234375 -1.128906 0.234375 -1.703125 L 0.234375 -2.1875 L 1.28125 -2.1875 L 1.28125 -1.625 C 1.28125 -1.375 1.332031 -1.195312 1.4375 -1.09375 C 1.539062 -0.988281 1.679688 -0.9375 1.859375 -0.9375 C 2.035156 -0.9375 2.175781 -0.988281 2.28125 -1.09375 C 2.382812 -1.195312 2.4375 -1.375 2.4375 -1.625 C 2.4375 -1.875 2.378906 -2.085938 2.265625 -2.265625 C 2.160156 -2.453125 2.023438 -2.628906 1.859375 -2.796875 C 1.703125 -2.960938 1.53125 -3.128906 1.34375 -3.296875 C 1.164062 -3.460938 0.992188 -3.640625 0.828125 -3.828125 C 0.671875 -4.023438 0.535156 -4.25 0.421875 -4.5 C 0.316406 -4.75 0.265625 -5.046875 0.265625 -5.390625 Z M 0.265625 -5.390625 "/></g></g></g><g fill="#253439" fill-opacity="1"><g transform="translate(230.34823, 209.656553)"><g/></g></g><g fill="#253439" fill-opacity="1"><g transform="translate(235.462823, 209.656553)"><g><path d="M 3.640625 -2.640625 L 3.640625 -1.703125 C 3.640625 -1.128906 3.5 -0.6875 3.21875 -0.375 C 2.9375 -0.0703125 2.519531 0.078125 1.96875 0.078125 C 1.425781 0.078125 1.015625 -0.0703125 0.734375 -0.375 C 0.453125 -0.6875 0.3125 -1.128906 0.3125 -1.703125 L 0.3125 -5.390625 C 0.3125 -5.960938 0.453125 -6.398438 0.734375 -6.703125 C 1.015625 -7.015625 1.425781 -7.171875 1.96875 -7.171875 C 2.519531 -7.171875 2.9375 -7.015625 3.21875 -6.703125 C 3.5 -6.398438 3.640625 -5.960938 3.640625 -5.390625 L 3.640625 -4.703125 L 2.578125 -4.703125 L 2.578125 -5.453125 C 2.578125 -5.710938 2.523438 -5.894531 2.421875 -6 C 2.316406 -6.101562 2.175781 -6.15625 2 -6.15625 C 1.820312 -6.15625 1.679688 -6.101562 1.578125 -6 C 1.472656 -5.894531 1.421875 -5.710938 1.421875 -5.453125 L 1.421875 -1.625 C 1.421875 -1.375 1.472656 -1.195312 1.578125 -1.09375 C 1.679688 -0.988281 1.820312 -0.9375 2 -0.9375 C 2.175781 -0.9375 2.316406 -0.988281 2.421875 -1.09375 C 2.523438 -1.195312 2.578125 -1.375 2.578125 -1.625 L 2.578125 -2.640625 Z M 3.640625 -2.640625 "/></g></g></g><g fill="#253439" fill-opacity="1"><g transform="translate(242.91628, 209.656553)"><g><path d="M 1.421875 -1.625 C 1.421875 -1.375 1.472656 -1.195312 1.578125 -1.09375 C 1.679688 -0.988281 1.820312 -0.9375 2 -0.9375 C 2.175781 -0.9375 2.316406 -0.988281 2.421875 -1.09375 C 2.523438 -1.195312 2.578125 -1.375 2.578125 -1.625 L 2.578125 -5.453125 C 2.578125 -5.710938 2.523438 -5.894531 2.421875 -6 C 2.316406 -6.101562 2.175781 -6.15625 2 -6.15625 C 1.820312 -6.15625 1.679688 -6.101562 1.578125 -6 C 1.472656 -5.894531 1.421875 -5.710938 1.421875 -5.453125 Z M 0.3125 -5.390625 C 0.3125 -5.960938 0.457031 -6.398438 0.75 -6.703125 C 1.039062 -7.015625 1.457031 -7.171875 2 -7.171875 C 2.550781 -7.171875 2.972656 -7.015625 3.265625 -6.703125 C 3.554688 -6.398438 3.703125 -5.960938 3.703125 -5.390625 L 3.703125 -1.703125 C 3.703125 -1.128906 3.554688 -0.6875 3.265625 -0.375 C 2.972656 -0.0703125 2.550781 0.078125 2 0.078125 C 1.457031 0.078125 1.039062 -0.0703125 0.75 -0.375 C 0.457031 -0.6875 0.3125 -1.128906 0.3125 -1.703125 Z M 0.3125 -5.390625 "/></g></g></g><g fill="#253439" fill-opacity="1"><g transform="translate(250.470993, 209.656553)"><g><path d="M 1.421875 -1.625 C 1.421875 -1.375 1.472656 -1.195312 1.578125 -1.09375 C 1.679688 -0.988281 1.820312 -0.9375 2 -0.9375 C 2.175781 -0.9375 2.316406 -0.988281 2.421875 -1.09375 C 2.523438 -1.195312 2.578125 -1.375 2.578125 -1.625 L 2.578125 -5.453125 C 2.578125 -5.710938 2.523438 -5.894531 2.421875 -6 C 2.316406 -6.101562 2.175781 -6.15625 2 -6.15625 C 1.820312 -6.15625 1.679688 -6.101562 1.578125 -6 C 1.472656 -5.894531 1.421875 -5.710938 1.421875 -5.453125 Z M 0.3125 -5.390625 C 0.3125 -5.960938 0.457031 -6.398438 0.75 -6.703125 C 1.039062 -7.015625 1.457031 -7.171875 2 -7.171875 C 2.550781 -7.171875 2.972656 -7.015625 3.265625 -6.703125 C 3.554688 -6.398438 3.703125 -5.960938 3.703125 -5.390625 L 3.703125 -1.703125 C 3.703125 -1.128906 3.554688 -0.6875 3.265625 -0.375 C 2.972656 -0.0703125 2.550781 0.078125 2 0.078125 C 1.457031 0.078125 1.039062 -0.0703125 0.75 -0.375 C 0.457031 -0.6875 0.3125 -1.128906 0.3125 -1.703125 Z M 0.3125 -5.390625 "/></g></g></g><g fill="#253439" fill-opacity="1"><g transform="translate(258.025713, 209.656553)"><g><path d="M 2.046875 -7.09375 C 2.609375 -7.09375 3.023438 -6.941406 3.296875 -6.640625 C 3.566406 -6.347656 3.703125 -5.910156 3.703125 -5.328125 L 3.703125 -4.421875 C 3.703125 -3.835938 3.566406 -3.394531 3.296875 -3.09375 C 3.023438 -2.800781 2.609375 -2.65625 2.046875 -2.65625 L 1.515625 -2.65625 L 1.515625 0 L 0.40625 0 L 0.40625 -7.09375 Z M 1.515625 -6.078125 L 1.515625 -3.671875 L 2.046875 -3.671875 C 2.222656 -3.671875 2.359375 -3.71875 2.453125 -3.8125 C 2.546875 -3.90625 2.59375 -4.082031 2.59375 -4.34375 L 2.59375 -5.40625 C 2.59375 -5.664062 2.546875 -5.84375 2.453125 -5.9375 C 2.359375 -6.03125 2.222656 -6.078125 2.046875 -6.078125 Z M 1.515625 -6.078125 "/></g></g></g><g fill="#253439" fill-opacity="1"><g transform="translate(71.697173, 185.751139)"><g><path d="M 14.375 -26.828125 C 15.863281 -26.828125 17.335938 -26.65625 18.796875 -26.3125 C 20.253906 -25.976562 21.335938 -25.640625 22.046875 -25.296875 L 23.125 -24.796875 L 20.171875 -18.90625 C 18.140625 -19.988281 16.207031 -20.53125 14.375 -20.53125 C 13.363281 -20.53125 12.644531 -20.421875 12.21875 -20.203125 C 11.789062 -19.984375 11.578125 -19.566406 11.578125 -18.953125 C 11.578125 -18.816406 11.59375 -18.679688 11.625 -18.546875 C 11.664062 -18.410156 11.734375 -18.28125 11.828125 -18.15625 C 11.929688 -18.039062 12.023438 -17.941406 12.109375 -17.859375 C 12.203125 -17.773438 12.347656 -17.679688 12.546875 -17.578125 C 12.753906 -17.472656 12.914062 -17.394531 13.03125 -17.34375 C 13.15625 -17.300781 13.351562 -17.226562 13.625 -17.125 C 13.894531 -17.019531 14.097656 -16.941406 14.234375 -16.890625 C 14.367188 -16.835938 14.59375 -16.757812 14.90625 -16.65625 C 15.226562 -16.5625 15.476562 -16.5 15.65625 -16.46875 C 16.695312 -16.15625 17.609375 -15.8125 18.390625 -15.4375 C 19.171875 -15.070312 19.992188 -14.566406 20.859375 -13.921875 C 21.722656 -13.273438 22.390625 -12.460938 22.859375 -11.484375 C 23.335938 -10.503906 23.578125 -9.382812 23.578125 -8.125 C 23.578125 -2.195312 19.460938 0.765625 11.234375 0.765625 C 9.367188 0.765625 7.597656 0.476562 5.921875 -0.09375 C 4.242188 -0.675781 3.03125 -1.253906 2.28125 -1.828125 L 1.171875 -2.75 L 4.828125 -8.890625 C 5.097656 -8.648438 5.453125 -8.367188 5.890625 -8.046875 C 6.335938 -7.734375 7.132812 -7.296875 8.28125 -6.734375 C 9.4375 -6.171875 10.4375 -5.890625 11.28125 -5.890625 C 13.144531 -5.890625 14.078125 -6.519531 14.078125 -7.78125 C 14.078125 -8.351562 13.835938 -8.800781 13.359375 -9.125 C 12.890625 -9.445312 12.085938 -9.8125 10.953125 -10.21875 C 9.816406 -10.625 8.925781 -10.992188 8.28125 -11.328125 C 6.65625 -12.171875 5.367188 -13.125 4.421875 -14.1875 C 3.472656 -15.257812 3 -16.675781 3 -18.4375 C 3 -21.082031 4.019531 -23.140625 6.0625 -24.609375 C 8.113281 -26.085938 10.882812 -26.828125 14.375 -26.828125 Z M 14.375 -26.828125 "/></g></g></g><g fill="#253439" fill-opacity="1"><g transform="translate(92.733219, 185.751139)"><g><path d="M 29.421875 -11.78125 L 10.515625 -11.78125 C 10.515625 -9.957031 11.109375 -8.601562 12.296875 -7.71875 C 13.484375 -6.84375 14.769531 -6.40625 16.15625 -6.40625 C 17.613281 -6.40625 18.765625 -6.597656 19.609375 -6.984375 C 20.460938 -7.378906 21.429688 -8.148438 22.515625 -9.296875 L 29.015625 -6.046875 C 26.304688 -1.503906 21.800781 0.765625 15.5 0.765625 C 11.570312 0.765625 8.203125 -0.578125 5.390625 -3.265625 C 2.578125 -5.960938 1.171875 -9.207031 1.171875 -13 C 1.171875 -16.800781 2.578125 -20.054688 5.390625 -22.765625 C 8.203125 -25.472656 11.570312 -26.828125 15.5 -26.828125 C 19.632812 -26.828125 22.992188 -25.632812 25.578125 -23.25 C 28.171875 -20.863281 29.46875 -17.453125 29.46875 -13.015625 C 29.46875 -12.398438 29.453125 -11.988281 29.421875 -11.78125 Z M 10.765625 -16.765625 L 20.6875 -16.765625 C 20.476562 -18.117188 19.941406 -19.160156 19.078125 -19.890625 C 18.210938 -20.617188 17.101562 -20.984375 15.75 -20.984375 C 14.257812 -20.984375 13.070312 -20.59375 12.1875 -19.8125 C 11.3125 -19.03125 10.835938 -18.015625 10.765625 -16.765625 Z M 10.765625 -16.765625 "/></g></g></g><g fill="#253439" fill-opacity="1"><g transform="translate(119.409453, 185.751139)"><g><path d="M 9.65625 -26.0625 L 16 -11.890625 L 22.359375 -26.0625 L 33.03125 -26.0625 L 19.046875 0 L 12.953125 0 L -1.015625 -26.0625 Z M 9.65625 -26.0625 "/></g></g></g><g fill="#253439" fill-opacity="1"><g transform="translate(147.457615, 185.751139)"><g><path d="M 29.421875 -11.78125 L 10.515625 -11.78125 C 10.515625 -9.957031 11.109375 -8.601562 12.296875 -7.71875 C 13.484375 -6.84375 14.769531 -6.40625 16.15625 -6.40625 C 17.613281 -6.40625 18.765625 -6.597656 19.609375 -6.984375 C 20.460938 -7.378906 21.429688 -8.148438 22.515625 -9.296875 L 29.015625 -6.046875 C 26.304688 -1.503906 21.800781 0.765625 15.5 0.765625 C 11.570312 0.765625 8.203125 -0.578125 5.390625 -3.265625 C 2.578125 -5.960938 1.171875 -9.207031 1.171875 -13 C 1.171875 -16.800781 2.578125 -20.054688 5.390625 -22.765625 C 8.203125 -25.472656 11.570312 -26.828125 15.5 -26.828125 C 19.632812 -26.828125 22.992188 -25.632812 25.578125 -23.25 C 28.171875 -20.863281 29.46875 -17.453125 29.46875 -13.015625 C 29.46875 -12.398438 29.453125 -11.988281 29.421875 -11.78125 Z M 10.765625 -16.765625 L 20.6875 -16.765625 C 20.476562 -18.117188 19.941406 -19.160156 19.078125 -19.890625 C 18.210938 -20.617188 17.101562 -20.984375 15.75 -20.984375 C 14.257812 -20.984375 13.070312 -20.59375 12.1875 -19.8125 C 11.3125 -19.03125 10.835938 -18.015625 10.765625 -16.765625 Z M 10.765625 -16.765625 "/></g></g></g><g fill="#253439" fill-opacity="1"><g transform="translate(174.133849, 185.751139)"><g><path d="M 3.046875 0 L 3.046875 -26.0625 L 12.046875 -26.0625 L 12.046875 -23.328125 L 12.140625 -23.328125 C 14.484375 -25.660156 16.972656 -26.828125 19.609375 -26.828125 C 20.898438 -26.828125 22.179688 -26.65625 23.453125 -26.3125 C 24.722656 -25.976562 25.941406 -25.453125 27.109375 -24.734375 C 28.273438 -24.023438 29.222656 -23.019531 29.953125 -21.71875 C 30.679688 -20.414062 31.046875 -18.898438 31.046875 -17.171875 L 31.046875 0 L 22.046875 0 L 22.046875 -14.734375 C 22.046875 -16.085938 21.613281 -17.269531 20.75 -18.28125 C 19.894531 -19.300781 18.769531 -19.8125 17.375 -19.8125 C 16.019531 -19.8125 14.789062 -19.285156 13.6875 -18.234375 C 12.59375 -17.191406 12.046875 -16.023438 12.046875 -14.734375 L 12.046875 0 Z M 3.046875 0 "/></g></g></g><g fill="#253439" fill-opacity="1"><g transform="translate(203.757199, 185.751139)"><g><path d="M 3.046875 0 L 3.046875 -43.703125 L 12.046875 -43.703125 L 12.046875 -23.328125 L 12.140625 -23.328125 C 14.484375 -25.660156 16.972656 -26.828125 19.609375 -26.828125 C 20.898438 -26.828125 22.179688 -26.65625 23.453125 -26.3125 C 24.722656 -25.976562 25.941406 -25.453125 27.109375 -24.734375 C 28.273438 -24.023438 29.222656 -23.019531 29.953125 -21.71875 C 30.679688 -20.414062 31.046875 -18.898438 31.046875 -17.171875 L 31.046875 0 L 22.046875 0 L 22.046875 -14.734375 C 22.046875 -16.085938 21.613281 -17.269531 20.75 -18.28125 C 19.894531 -19.300781 18.769531 -19.8125 17.375 -19.8125 C 16.019531 -19.8125 14.789062 -19.285156 13.6875 -18.234375 C 12.59375 -17.191406 12.046875 -16.023438 12.046875 -14.734375 L 12.046875 0 Z M 3.046875 0 "/></g></g></g><g fill="#253439" fill-opacity="1"><g transform="translate(233.380549, 185.751139)"><g><path d="M 29.421875 -11.78125 L 10.515625 -11.78125 C 10.515625 -9.957031 11.109375 -8.601562 12.296875 -7.71875 C 13.484375 -6.84375 14.769531 -6.40625 16.15625 -6.40625 C 17.613281 -6.40625 18.765625 -6.597656 19.609375 -6.984375 C 20.460938 -7.378906 21.429688 -8.148438 22.515625 -9.296875 L 29.015625 -6.046875 C 26.304688 -1.503906 21.800781 0.765625 15.5 0.765625 C 11.570312 0.765625 8.203125 -0.578125 5.390625 -3.265625 C 2.578125 -5.960938 1.171875 -9.207031 1.171875 -13 C 1.171875 -16.800781 2.578125 -20.054688 5.390625 -22.765625 C 8.203125 -25.472656 11.570312 -26.828125 15.5 -26.828125 C 19.632812 -26.828125 22.992188 -25.632812 25.578125 -23.25 C 28.171875 -20.863281 29.46875 -17.453125 29.46875 -13.015625 C 29.46875 -12.398438 29.453125 -11.988281 29.421875 -11.78125 Z M 10.765625 -16.765625 L 20.6875 -16.765625 C 20.476562 -18.117188 19.941406 -19.160156 19.078125 -19.890625 C 18.210938 -20.617188 17.101562 -20.984375 15.75 -20.984375 C 14.257812 -20.984375 13.070312 -20.59375 12.1875 -19.8125 C 11.3125 -19.03125 10.835938 -18.015625 10.765625 -16.765625 Z M 10.765625 -16.765625 "/></g></g></g><g fill="#253439" fill-opacity="1"><g transform="translate(260.056783, 185.751139)"><g><path d="M 4.828125 -3.21875 C 2.390625 -5.882812 1.171875 -9.144531 1.171875 -13 C 1.171875 -16.863281 2.390625 -20.132812 4.828125 -22.8125 C 7.265625 -25.488281 10.363281 -26.828125 14.125 -26.828125 C 17.582031 -26.828125 20.425781 -25.742188 22.65625 -23.578125 L 22.65625 -26.0625 L 31.65625 -26.0625 L 31.65625 0 L 22.765625 0 L 22.765625 -2.953125 L 22.65625 -2.953125 C 20.425781 -0.472656 17.582031 0.765625 14.125 0.765625 C 10.363281 0.765625 7.265625 -0.5625 4.828125 -3.21875 Z M 12.46875 -17.421875 C 11.300781 -16.273438 10.71875 -14.800781 10.71875 -13 C 10.71875 -11.207031 11.273438 -9.742188 12.390625 -8.609375 C 13.515625 -7.472656 14.988281 -6.90625 16.8125 -6.90625 C 18.582031 -6.90625 20.03125 -7.476562 21.15625 -8.625 C 22.289062 -9.78125 22.859375 -11.242188 22.859375 -13.015625 C 22.859375 -14.804688 22.273438 -16.273438 21.109375 -17.421875 C 19.941406 -18.578125 18.507812 -19.15625 16.8125 -19.15625 C 15.09375 -19.15625 13.644531 -18.578125 12.46875 -17.421875 Z M 12.46875 -17.421875 "/></g></g></g><g fill="#253439" fill-opacity="1"><g transform="translate(290.798004, 185.751139)"><g><path d="M 4.828125 -3.21875 C 2.390625 -5.882812 1.171875 -9.144531 1.171875 -13 C 1.171875 -16.863281 2.390625 -20.132812 4.828125 -22.8125 C 7.265625 -25.488281 10.363281 -26.828125 14.125 -26.828125 C 17.582031 -26.828125 20.425781 -25.742188 22.65625 -23.578125 L 22.65625 -43.703125 L 31.65625 -43.703125 L 31.65625 0 L 22.765625 0 L 22.765625 -2.953125 L 22.65625 -2.953125 C 20.425781 -0.472656 17.582031 0.765625 14.125 0.765625 C 10.363281 0.765625 7.265625 -0.5625 4.828125 -3.21875 Z M 12.46875 -17.421875 C 11.300781 -16.273438 10.71875 -14.800781 10.71875 -13 C 10.71875 -11.207031 11.273438 -9.742188 12.390625 -8.609375 C 13.515625 -7.472656 14.988281 -6.90625 16.8125 -6.90625 C 18.582031 -6.90625 20.03125 -7.476562 21.15625 -8.625 C 22.289062 -9.78125 22.859375 -11.242188 22.859375 -13.015625 C 22.859375 -14.804688 22.273438 -16.273438 21.109375 -17.421875 C 19.941406 -18.578125 18.507812 -19.15625 16.8125 -19.15625 C 15.09375 -19.15625 13.644531 -18.578125 12.46875 -17.421875 Z M 12.46875 -17.421875 "/></g></g></g><g fill="#253439" fill-opacity="1"><g transform="translate(321.539236, 185.751139)"><g><path d="M 14.375 -26.828125 C 15.863281 -26.828125 17.335938 -26.65625 18.796875 -26.3125 C 20.253906 -25.976562 21.335938 -25.640625 22.046875 -25.296875 L 23.125 -24.796875 L 20.171875 -18.90625 C 18.140625 -19.988281 16.207031 -20.53125 14.375 -20.53125 C 13.363281 -20.53125 12.644531 -20.421875 12.21875 -20.203125 C 11.789062 -19.984375 11.578125 -19.566406 11.578125 -18.953125 C 11.578125 -18.816406 11.59375 -18.679688 11.625 -18.546875 C 11.664062 -18.410156 11.734375 -18.28125 11.828125 -18.15625 C 11.929688 -18.039062 12.023438 -17.941406 12.109375 -17.859375 C 12.203125 -17.773438 12.347656 -17.679688 12.546875 -17.578125 C 12.753906 -17.472656 12.914062 -17.394531 13.03125 -17.34375 C 13.15625 -17.300781 13.351562 -17.226562 13.625 -17.125 C 13.894531 -17.019531 14.097656 -16.941406 14.234375 -16.890625 C 14.367188 -16.835938 14.59375 -16.757812 14.90625 -16.65625 C 15.226562 -16.5625 15.476562 -16.5 15.65625 -16.46875 C 16.695312 -16.15625 17.609375 -15.8125 18.390625 -15.4375 C 19.171875 -15.070312 19.992188 -14.566406 20.859375 -13.921875 C 21.722656 -13.273438 22.390625 -12.460938 22.859375 -11.484375 C 23.335938 -10.503906 23.578125 -9.382812 23.578125 -8.125 C 23.578125 -2.195312 19.460938 0.765625 11.234375 0.765625 C 9.367188 0.765625 7.597656 0.476562 5.921875 -0.09375 C 4.242188 -0.675781 3.03125 -1.253906 2.28125 -1.828125 L 1.171875 -2.75 L 4.828125 -8.890625 C 5.097656 -8.648438 5.453125 -8.367188 5.890625 -8.046875 C 6.335938 -7.734375 7.132812 -7.296875 8.28125 -6.734375 C 9.4375 -6.171875 10.4375 -5.890625 11.28125 -5.890625 C 13.144531 -5.890625 14.078125 -6.519531 14.078125 -7.78125 C 14.078125 -8.351562 13.835938 -8.800781 13.359375 -9.125 C 12.890625 -9.445312 12.085938 -9.8125 10.953125 -10.21875 C 9.816406 -10.625 8.925781 -10.992188 8.28125 -11.328125 C 6.65625 -12.171875 5.367188 -13.125 4.421875 -14.1875 C 3.472656 -15.257812 3 -16.675781 3 -18.4375 C 3 -21.082031 4.019531 -23.140625 6.0625 -24.609375 C 8.113281 -26.085938 10.882812 -26.828125 14.375 -26.828125 Z M 14.375 -26.828125 "/></g></g></g><g clip-path="url(#af2e62cb55)"><path fill="#7c898b" d="M 62.429688 142.082031 L 62.429688 162.597656 L 31.660156 183.113281 L 31.660156 162.597656 L 62.429688 142.082031 " fill-opacity="1" fill-rule="nonzero"/></g><g clip-path="url(#ef66fbdb66)"><path fill="#253439" d="M 62.429688 172.855469 L 62.429688 193.367188 L 31.660156 213.882812 L 31.660156 193.367188 L 62.429688 172.855469 " fill-opacity="1" fill-rule="nonzero"/></g><g clip-path="url(#9ffed58c54)"><path fill="#a6a6a6" d="M 31.660156 183.113281 L 62.429688 193.367188 L 62.429688 172.855469 L 31.660156 162.597656 " fill-opacity="1" fill-rule="nonzero"/></g></svg>